<svg xmlns="http://www.w3.org/2000/svg" viewBox="0 0 331.79 109.85"><defs><style>.a{fill:#2578b7;}</style></defs><path class="a" d="M125,46.19V7.77h8.14q4.76,0,7.21,2.59c1.63,1.73,2.45,4.17,2.45,7.34v18q0,5.4-2.61,8t-7.53,2.57ZM130.49,13V41H133a4.1,4.1,0,0,0,3.29-1.16,5.69,5.69,0,0,0,1-3.65V17.7a5.84,5.84,0,0,0-.92-3.51c-.61-.83-1.73-1.24-3.34-1.24Z"/><path class="a" d="M147.16,28a19.43,19.43,0,0,1,.22-3.07,7.24,7.24,0,0,1,.81-2.48A7.34,7.34,0,0,1,151,19.59a9.48,9.48,0,0,1,8.79,0,7.41,7.41,0,0,1,2.78,2.86,7.7,7.7,0,0,1,.81,2.48,20.76,20.76,0,0,1,.21,3.07v9a20.9,20.9,0,0,1-.21,3.08,7.78,7.78,0,0,1-.81,2.48,7.41,7.41,0,0,1-2.78,2.86,9.48,9.48,0,0,1-8.79,0,7.31,7.31,0,0,1-3.59-5.34,19.56,19.56,0,0,1-.22-3.08Zm5.51,9.88a3.34,3.34,0,0,0,.72,2.34,2.85,2.85,0,0,0,3.94,0,3.3,3.3,0,0,0,.73-2.34V27.14a3.33,3.33,0,0,0-.73-2.35,2.88,2.88,0,0,0-3.94,0,3.37,3.37,0,0,0-.72,2.35Z"/><path class="a" d="M193.89,18.83l-6.48,27.36h-4.85l-3-16.25h-.1l-3,16.25h-4.86l-6.48-27.36h5.83l3.35,17h.1l3.08-17h4.32l2.91,17h.11l3.29-17Z"/><path class="a" d="M196.21,46.19V18.83h5.5v2.64h.11a7.93,7.93,0,0,1,2.07-2.13,5.43,5.43,0,0,1,3.11-.83,6.18,6.18,0,0,1,2.05.35A4.71,4.71,0,0,1,210.88,20a6,6,0,0,1,1.3,2.07,8.84,8.84,0,0,1,.48,3.11v21h-5.5V27.25a3.73,3.73,0,0,0-.7-2.38,2.45,2.45,0,0,0-2-.86,2.33,2.33,0,0,0-2.16,1,5.49,5.49,0,0,0-.59,2.81v18.4Z"/><path class="a" d="M227.18,26.49a2.78,2.78,0,0,0-.89-2.1,2.9,2.9,0,0,0-1.92-.7,2.46,2.46,0,0,0-2,.83,3,3,0,0,0-.7,1.92,3.19,3.19,0,0,0,.38,1.48A3.46,3.46,0,0,0,224,29.24l3.24,1.3a7.87,7.87,0,0,1,4.24,3.24,9,9,0,0,1,1.16,4.47,8.06,8.06,0,0,1-.63,3.21,8.4,8.4,0,0,1-1.7,2.62,7.59,7.59,0,0,1-2.58,1.78,8.34,8.34,0,0,1-3.3.65,7.9,7.9,0,0,1-5.61-2.11A7.73,7.73,0,0,1,217,41.84a9.17,9.17,0,0,1-.76-3.59h5.18a5.34,5.34,0,0,0,.78,2.11,2.4,2.4,0,0,0,2.19,1,3.26,3.26,0,0,0,2.13-.78,2.68,2.68,0,0,0,.95-2.19,3.18,3.18,0,0,0-.6-1.94,4.56,4.56,0,0,0-2.16-1.4l-2.64-1A9,9,0,0,1,218,31.16a7.39,7.39,0,0,1-1.49-4.67,8,8,0,0,1,.65-3.21,7.85,7.85,0,0,1,1.78-2.56,7.34,7.34,0,0,1,2.54-1.65,8.7,8.7,0,0,1,3.13-.56,8,8,0,0,1,3.1.59,7.11,7.11,0,0,1,2.45,1.67,7.81,7.81,0,0,1,1.62,2.57,8.33,8.33,0,0,1,.6,3.15Z"/><path class="a" d="M236.18,18.83V10.52h5.51v8.31h3.4v4.32h-3.4V38.31a4.62,4.62,0,0,0,.19,1.51,1.46,1.46,0,0,0,.62.81,2.28,2.28,0,0,0,1.05.32c.41,0,.93.06,1.54.06v5.18h-2.27a7.31,7.31,0,0,1-3.15-.6,5.68,5.68,0,0,1-2-1.51,5.86,5.86,0,0,1-1.1-2.08,7.53,7.53,0,0,1-.36-2.24V23.15h-2.75V18.83Z"/><path class="a" d="M247.19,46.19V18.83h5.5v2.91a17.33,17.33,0,0,1,3.3-2.37,8.3,8.3,0,0,1,4-.86v5.82a4.59,4.59,0,0,0-1.67-.32,6.55,6.55,0,0,0-1.87.3,4.83,4.83,0,0,0-1.8,1,5.16,5.16,0,0,0-1.41,1.84,6.47,6.47,0,0,0-.54,2.8V46.19Z"/><path class="a" d="M278.11,34.58h-10.9v3.73a2.61,2.61,0,0,0,.73,2,2.7,2.7,0,0,0,2,.71,2.16,2.16,0,0,0,2.07-.92,4.73,4.73,0,0,0,.62-1.84h5.51a7.89,7.89,0,0,1-2.21,5.83,7.73,7.73,0,0,1-2.59,1.78,8.59,8.59,0,0,1-3.4.65,8.42,8.42,0,0,1-4.4-1.08,7.41,7.41,0,0,1-2.78-2.86,7.31,7.31,0,0,1-.81-2.48,20.9,20.9,0,0,1-.21-3.08V28a20.76,20.76,0,0,1,.21-3.07,7.24,7.24,0,0,1,.81-2.48,7.41,7.41,0,0,1,2.78-2.86,8.42,8.42,0,0,1,4.4-1.08,8.72,8.72,0,0,1,3.42.64A7.84,7.84,0,0,1,276,20.93a8.85,8.85,0,0,1,2.16,6.1Zm-10.9-4.31h5.39V27.14a3.37,3.37,0,0,0-.72-2.35,2.58,2.58,0,0,0-2-.78,2.55,2.55,0,0,0-2,.78,3.33,3.33,0,0,0-.73,2.35Z"/><path class="a" d="M292.57,46.19V43.38h-.11a10.07,10.07,0,0,1-2.19,2.32,5.15,5.15,0,0,1-3.1.81,6.83,6.83,0,0,1-2-.3,5.12,5.12,0,0,1-1.91-1.1,5.4,5.4,0,0,1-1.49-2.19,10.3,10.3,0,0,1-.56-3.69,19.72,19.72,0,0,1,.37-4.08A6.52,6.52,0,0,1,283,32.21a5.91,5.91,0,0,1,2.64-1.7,13.46,13.46,0,0,1,4.26-.57h.6a2.74,2.74,0,0,1,.59.06,3.12,3.12,0,0,0,.65.05,6,6,0,0,1,.81.06V27.25a4.14,4.14,0,0,0-.6-2.32,2.36,2.36,0,0,0-2.15-.92,3.09,3.09,0,0,0-2,.7,3.3,3.3,0,0,0-1.16,2.05h-5.35a8.83,8.83,0,0,1,2.49-5.93,7.72,7.72,0,0,1,2.59-1.7,8.73,8.73,0,0,1,3.4-.62,9.48,9.48,0,0,1,3.23.54,7.55,7.55,0,0,1,2.65,1.61,7.87,7.87,0,0,1,1.72,2.7,10.18,10.18,0,0,1,.65,3.78v19Zm0-11.77a8.82,8.82,0,0,0-1.51-.16,5.38,5.38,0,0,0-3.05.84,3.37,3.37,0,0,0-1.27,3,4,4,0,0,0,.76,2.53,2.49,2.49,0,0,0,2.1,1,2.71,2.71,0,0,0,2.18-.91,3.86,3.86,0,0,0,.79-2.59Z"/><path class="a" d="M302.12,46.19V18.83h5.5v2.64h.11a7.82,7.82,0,0,1,2.08-2.13,5.38,5.38,0,0,1,3.1-.83,4.92,4.92,0,0,1,3,.86,9.2,9.2,0,0,1,1.94,1.89,11.5,11.5,0,0,1,2.26-1.94,6.3,6.3,0,0,1,3.46-.81,6.6,6.6,0,0,1,2.1.35A5,5,0,0,1,327.58,20,6,6,0,0,1,329,22.09a8.14,8.14,0,0,1,.54,3.11v21H324V27.25a3.67,3.67,0,0,0-.7-2.38,2.44,2.44,0,0,0-2-.86,2.3,2.3,0,0,0-2.15,1,5.39,5.39,0,0,0-.6,2.81v18.4h-5.5V27.25a3.67,3.67,0,0,0-.7-2.38,2.44,2.44,0,0,0-2-.86,2.33,2.33,0,0,0-2.16,1,5.49,5.49,0,0,0-.59,2.81v18.4Z"/><path class="a" d="M127.57,93V54.6h5.29L139.93,75H140l7-20.35h5.34V93h-5.5V69.66h-.11l-5.45,16.51h-2.75l-5.39-16.51h-.11V93Z"/><path class="a" d="M173.17,81.42h-10.9v3.72a2.63,2.63,0,0,0,.73,2,2.7,2.7,0,0,0,2,.7,2.14,2.14,0,0,0,2.07-.92,4.74,4.74,0,0,0,.62-1.83h5.51a7.89,7.89,0,0,1-4.8,7.61,8.62,8.62,0,0,1-3.4.64,8.51,8.51,0,0,1-4.4-1.07,7.43,7.43,0,0,1-2.78-2.87,7.17,7.17,0,0,1-.81-2.48,20.7,20.7,0,0,1-.22-3.07v-9a20.84,20.84,0,0,1,.22-3.08,7.31,7.31,0,0,1,.81-2.48,7.41,7.41,0,0,1,2.78-2.86,8.42,8.42,0,0,1,4.4-1.08,8.76,8.76,0,0,1,3.42.65A7.56,7.56,0,0,1,171,67.77a8.84,8.84,0,0,1,2.16,6.1Zm-10.9-4.32h5.39V74a3.34,3.34,0,0,0-.72-2.34,2.59,2.59,0,0,0-2-.79,2.56,2.56,0,0,0-2,.79,3.3,3.3,0,0,0-.73,2.34Z"/><path class="a" d="M188.17,93V90.54c-.37.39-.7.76-1,1.1a5.12,5.12,0,0,1-1.08.89,4.9,4.9,0,0,1-1.35.6,6.63,6.63,0,0,1-1.78.21,4.93,4.93,0,0,1-4.8-2.59,7.25,7.25,0,0,1-.7-2.26,24.46,24.46,0,0,1-.22-3.62V74.46a41,41,0,0,1,.17-4.37,5.21,5.21,0,0,1,2.53-4,5.54,5.54,0,0,1,3.08-.7,5.63,5.63,0,0,1,2.88.73,6.66,6.66,0,0,1,2.19,2.08h.11V54.6h5.5V93Zm-5.45-8.9a5,5,0,0,0,.64,2.69,2.25,2.25,0,0,0,2,1,2.42,2.42,0,0,0,2-.94,3.84,3.84,0,0,0,.76-2.46V73.81a3,3,0,0,0-.79-2.13,2.56,2.56,0,0,0-2-.84,2.26,2.26,0,0,0-2.13,1,4.36,4.36,0,0,0-.56,2.26Z"/><path class="a" d="M198.2,60.11V54.6h5.5v5.51Zm0,32.91V65.67h5.5V93Z"/><path class="a" d="M218.65,93V90.21h-.11a10.26,10.26,0,0,1-2.18,2.32,5.2,5.2,0,0,1-3.11.81,7.23,7.23,0,0,1-2-.29,5.45,5.45,0,0,1-3.39-3.29,10.16,10.16,0,0,1-.57-3.7A18.91,18.91,0,0,1,207.7,82a6.4,6.4,0,0,1,1.4-2.94,5.79,5.79,0,0,1,2.64-1.7,13.46,13.46,0,0,1,4.26-.57h.6a3.61,3.61,0,0,1,.59,0,3.06,3.06,0,0,0,.65.06,8,8,0,0,1,.81,0V74.08a4.17,4.17,0,0,0-.6-2.32,2.36,2.36,0,0,0-2.15-.92,3.1,3.1,0,0,0-2,.71,3.28,3.28,0,0,0-1.16,2h-5.34a8.78,8.78,0,0,1,2.48-5.94A7.88,7.88,0,0,1,212.5,66a8.92,8.92,0,0,1,3.4-.62,9.58,9.58,0,0,1,3.24.54,7.48,7.48,0,0,1,2.64,1.62,7.87,7.87,0,0,1,1.72,2.7,10,10,0,0,1,.65,3.77V93Zm0-11.76a8.82,8.82,0,0,0-1.51-.16,5.46,5.46,0,0,0-3,.83,3.38,3.38,0,0,0-1.27,3,4,4,0,0,0,.76,2.54,2.52,2.52,0,0,0,2.1,1,2.74,2.74,0,0,0,2.19-.92,3.87,3.87,0,0,0,.78-2.59Z"/><path class="a" d="M238.56,93V54.6h5.5V87.52H255V93Z"/><path class="a" d="M258.52,93V54.6H264V87.52h10.9V93Z"/><path class="a" d="M296,82.07v2.37a8.53,8.53,0,0,1-.68,3.37,9.44,9.44,0,0,1-1.86,2.84,9.18,9.18,0,0,1-2.78,2,8.21,8.21,0,0,1-3.43.72,12.22,12.22,0,0,1-3.18-.43,7.51,7.51,0,0,1-2.91-1.51A8.11,8.11,0,0,1,279,88.62a9.78,9.78,0,0,1-.84-4.34V63.13a9.4,9.4,0,0,1,.65-3.51,8.19,8.19,0,0,1,1.83-2.8A8.6,8.6,0,0,1,283.47,55a9.57,9.57,0,0,1,3.65-.68,8.35,8.35,0,0,1,6.31,2.54,8.88,8.88,0,0,1,1.86,2.94,9.89,9.89,0,0,1,.68,3.69v2.16h-5.51V63.78a4.47,4.47,0,0,0-.92-2.81,3,3,0,0,0-2.48-1.19,2.8,2.8,0,0,0-2.72,1.27,6.81,6.81,0,0,0-.68,3.21V83.9a5.15,5.15,0,0,0,.73,2.81A2.89,2.89,0,0,0,287,87.84a3.9,3.9,0,0,0,1.16-.19,2.88,2.88,0,0,0,2-1.81,4.88,4.88,0,0,0,.32-1.88V82.07Z"/><path class="a" d="M50.73.58A50.73,50.73,0,0,0,6,75.28c24.55-1.8,51.06-5.75,53.44-11.39,3.45-8.17-42.11-9-50.45-15.52-7.56-6,6.34-9.27,48.73-18.81,25.83-5.81-.25-10.28-.25-10.28,4.85-.53,14.49,0,19.8,1.73,20,6.56-18.41,13.46-32.9,21.17-10.81,5.75,13.26,5.56,39.67,14.68,22.47,7.77-23.51,31.32-50.42,42.22A50.73,50.73,0,1,0,50.73.58Z"/></svg>